<?xml version="1.0" encoding="UTF-8" standalone="no"?><!DOCTYPE svg PUBLIC "-//W3C//DTD SVG 1.1//EN" "http://www.w3.org/Graphics/SVG/1.1/DTD/svg11.dtd"><svg width="100%" height="100%" viewBox="0 0 11405 11405" version="1.1" xmlns="http://www.w3.org/2000/svg" xmlns:xlink="http://www.w3.org/1999/xlink" xml:space="preserve" xmlns:serif="http://www.serif.com/" style="fill-rule:evenodd;clip-rule:evenodd;stroke-linejoin:round;stroke-miterlimit:2;"><rect id="rect3886" x="0" y="0" width="11402.5" height="11404.2" style="fill:#fff;"/><g id="Layer-1"></g><g><g transform="matrix(0.97915,0,0,1,137.489,0)"><text x="6594.04px" y="4231.46px" style="font-family:'AppleSDGothicNeo-UltraLight', 'Apple SD Gothic Neo';font-weight:200;font-size:872.45px;fill:#91a71c;">App</text></g></g><g><path d="M3673.17,3596.36c-0,55.266 -44.805,100.071 -100.071,100.071c-55.266,0 -100.071,-44.805 -100.071,-100.071c0,-55.266 44.805,-100.071 100.071,-100.071c55.266,0 100.071,44.805 100.071,100.071Z" style="fill:#bbd245;fill-rule:nonzero;"/><path d="M5446.23,4119.45c-45.281,44.422 -102.312,66.628 -171.164,66.628c-64.915,-0 -121.005,-22.682 -168.216,-68.058c-47.218,-45.369 -70.841,-100.176 -70.841,-164.48c0,-64.25 23.623,-119.099 70.841,-164.468c47.211,-45.376 103.301,-68.064 168.216,-68.064c66.851,0 123.423,22.688 169.705,68.064c46.181,45.369 69.34,100.218 69.34,164.468c-0,66.204 -22.641,121.488 -67.881,165.91Z" style="fill:#92a83c;fill-rule:nonzero;"/><path d="M5275.35,4081.35c-70.181,-0 -127.277,-57.102 -127.277,-127.283c0,-70.193 57.096,-127.295 127.277,-127.295c70.182,-0 127.278,57.102 127.278,127.295c-0,70.181 -57.096,127.283 -127.278,127.283Z" style="fill:#92a83c;fill-rule:nonzero;"/><g><circle cx="5277.36" cy="3954.07" r="133.542" style="fill:#bcd342;"/></g><path d="M5275.35,3812.07c-78.295,0 -141.986,63.704 -141.986,142.005c-0,78.295 63.691,141.992 141.986,141.992c78.29,0 141.987,-63.697 141.987,-141.992c0,-78.301 -63.697,-142.005 -141.987,-142.005Zm0,29.419c62.186,0 112.568,50.412 112.568,112.586c0,62.167 -50.382,112.574 -112.568,112.574c-62.191,-0 -112.568,-50.407 -112.568,-112.574c0,-62.174 50.377,-112.586 112.568,-112.586Z" style="fill:#fff;fill-rule:nonzero;"/><path d="M3864.53,3879.29c34.673,0 61.22,-6.325 79.666,-18.993c18.434,-12.656 27.653,-34.119 27.653,-64.391c0,-29.166 -8.949,-49.247 -26.829,-60.262c-17.887,-11.014 -44.717,-16.515 -80.49,-16.515l-0,160.161Zm-140.339,-281.514l159.326,0c34.12,0 65.221,3.295 93.287,9.903c28.071,6.607 52.141,16.921 72.234,30.96c20.088,14.033 35.632,32.337 46.647,54.895c11.002,22.576 16.515,49.536 16.515,80.902c0,31.372 -8.543,60.826 -25.594,88.338c-16.51,26.972 -38.533,45.958 -66.045,56.967l170.064,255.92l-169.24,-0l-155.202,-262.528l-1.653,0l-0,265.822l-140.339,0l-0,-581.179Z" style="fill:#92a83c;fill-rule:nonzero;"/><path d="M4445.61,3852.05c-11.014,-11.561 -29.713,-17.339 -56.137,-17.339c-27.518,0 -51.183,11.02 -70.993,33.026c-19.275,22.576 -28.895,47.611 -28.895,75.117l-0,14.869l156.025,-105.673Zm-118.875,183.268c7.702,10.461 17.875,18.304 30.542,23.535c12.656,5.236 25.589,7.837 38.804,7.837c41.821,-0 83.096,-16.775 123.829,-50.353l66.869,99.888c-29.178,20.923 -59.438,37.291 -90.81,49.123c-31.366,11.827 -65.504,17.746 -102.371,17.746c-32.473,1.1 -62.739,-5.231 -90.804,-18.987c-28.072,-13.75 -52.424,-31.502 -73.071,-53.248c-20.628,-21.735 -36.596,-45.952 -47.87,-72.647c-11.291,-26.694 -16.657,-52.695 -16.104,-78.012c-1.106,-30.825 4.26,-60.397 16.104,-88.751c11.827,-28.342 28.066,-53.377 48.706,-75.124c20.634,-21.734 44.581,-38.932 71.823,-51.6c27.242,-12.65 55.996,-18.699 86.267,-18.157c44.582,-0 86.127,11.838 124.659,35.502c39.074,24.224 67.964,56.137 86.686,95.758l-273.259,177.49Z" style="fill:#92a83c;fill-rule:nonzero;"/><path d="M4949.09,3872.69c-11.02,-9.355 -23.811,-16.645 -38.385,-21.882c-14.592,-5.219 -29.59,-7.837 -44.999,-7.837c-29.719,-0 -54.772,9.902 -75.124,29.719c-20.369,18.716 -30.542,43.21 -30.542,73.476c-0,17.063 2.477,32.89 7.425,47.464c4.954,14.592 12.103,27.242 21.464,37.974c9.355,10.738 20.769,19.275 34.267,25.594c13.479,6.331 28.477,9.491 44.993,9.491c31.907,-0 59.155,-10.444 81.725,-31.372l70.17,92.469c-7.714,8.808 -17.893,16.645 -30.543,23.529c-12.668,6.884 -26.147,12.662 -40.451,17.327c-14.321,4.672 -28.765,8.267 -43.339,10.738c-14.592,2.477 -27.948,3.713 -40.045,3.713c-35.226,0.541 -67.281,-5.231 -96.176,-17.334c-28.889,-12.103 -53.66,-28.336 -74.294,-48.711c-20.64,-20.352 -36.615,-43.875 -47.888,-70.582c-11.285,-26.683 -16.651,-54.619 -16.098,-83.796c0,-35.214 5.778,-67.275 17.34,-96.176c11.555,-28.889 27.783,-53.654 48.705,-74.294c20.911,-20.64 45.676,-36.738 74.306,-48.3c28.607,-11.555 59.973,-17.333 94.105,-17.333c26.959,-0 53.666,4.542 80.084,13.621c26.418,9.078 49.806,21.881 70.169,38.385l-66.869,94.117Z" style="fill:#92a83c;fill-rule:nonzero;"/><path d="M5565.26,3746.38l114.745,0l0,68.511l0.83,-0c6.607,-18.693 14.044,-33.967 22.293,-45.817c8.249,-11.826 17.881,-20.764 28.89,-26.824c11.008,-6.055 23.535,-10.179 37.567,-12.385c14.033,-2.195 30.131,-3.301 48.3,-3.301l-35.508,129.607c-31.926,0 -54.484,6.896 -67.687,20.64c-13.215,13.768 -19.811,36.609 -19.811,68.522l0,231.155l-129.619,0l0,-430.108Z" style="fill:#92a83c;fill-rule:nonzero;"/><path d="M5960.15,3994.86c5.231,13.209 12.391,24.764 21.47,34.679c9.078,9.902 19.675,17.745 31.784,23.529c12.103,5.778 25.306,8.661 39.627,8.661c13.75,-0 26.694,-2.883 38.803,-8.661c12.103,-5.784 22.7,-13.627 31.778,-23.529c9.091,-9.915 16.234,-21.47 21.464,-34.679c5.231,-13.203 7.849,-27.242 7.849,-42.098c0,-14.31 -2.618,-28.072 -7.849,-41.281c-5.23,-13.209 -12.373,-24.77 -21.464,-34.673c-9.078,-9.908 -19.675,-17.745 -31.778,-23.523c-12.109,-5.784 -25.053,-8.673 -38.803,-8.673c-14.321,0 -27.524,2.889 -39.627,8.673c-12.109,5.778 -22.706,13.615 -31.784,23.523c-9.079,9.903 -16.239,21.464 -21.47,34.673c-5.225,13.209 -7.837,26.971 -7.837,41.281c-0,14.856 2.612,28.895 7.837,42.098Zm187.821,-397.083l125.477,0l-0,577.055l-117.222,-0l-0,-60.261l-1.659,-0c-20.364,40.174 -59.155,60.261 -116.398,60.261c-29.178,0.541 -56.549,-4.954 -82.143,-16.516c-25.589,-11.544 -48.024,-27.236 -67.281,-47.052c-19.275,-19.817 -34.397,-42.928 -45.405,-69.346c-11.009,-26.418 -16.239,-54.207 -15.686,-83.385c-0.553,-29.712 4.536,-58.325 15.274,-85.849c10.732,-27.513 25.588,-51.871 44.587,-73.065c18.981,-21.181 41.404,-37.973 67.269,-50.359c25.871,-12.385 53.666,-18.286 83.385,-17.745c20.351,-0 40.58,3.713 60.679,11.144c20.087,7.431 36.449,17.751 49.123,30.96l0,-175.842Z" style="fill:#92a83c;fill-rule:nonzero;"/><rect x="3500.61" y="3733.12" width="141.904" height="450.007" style="fill:#92a83c;"/><path d="M5550.86,3316.19l-16.133,-17.14c17.386,-16.368 28.271,-23.546 28.73,-23.84l12.879,19.698l-6.442,-9.849l6.46,9.832c-0.094,0.07 -9.814,6.537 -25.494,21.299Z" style="fill:#92a83c;fill-rule:nonzero;"/><g><path d="M5550.86,3316.19l-16.133,-17.14c17.386,-16.368 28.271,-23.546 28.73,-23.84l12.879,19.698l-6.442,-9.849l6.46,9.832c-0.094,0.07 -9.814,6.537 -25.494,21.299Z" style="fill:#92a83c;"/><path d="M5566.01,3262.99l11.791,18.034l10.668,16.233l-0.036,0.023l2.113,3.236l-14.769,9.662l-1.682,-2.572l-0.854,0.683l-0.9,0.729l-0.941,0.771l-0.989,0.818l-1.029,0.865l-1.071,0.906l-1.112,0.947l-1.153,1.001l-1.195,1.041l-1.229,1.088l-1.271,1.142l-1.307,1.183l-1.341,1.229l-1.383,1.277l-7.86,7.355l-28.213,-29.972l0,-0.018l7.255,-6.807l0.818,-0.765l0.811,-0.753l0.801,-0.742l1.565,-1.429l1.53,-1.389l1.494,-1.33l1.447,-1.276l1.401,-1.224l1.365,-1.177l1.318,-1.124l1.271,-1.076l1.229,-1.024l1.183,-0.977l1.136,-0.924l1.088,-0.876l1.041,-0.83l0.995,-0.777l0.941,-0.735l0.889,-0.689l0.841,-0.641l0.788,-0.588l0.736,-0.553l0.682,-0.5l0.63,-0.459l0.577,-0.412l0.517,-0.371l0.477,-0.335l0.747,-0.512l0.524,-0.359l7.625,-5.019l0.041,0.012Zm-5.136,25.053l-0.912,0.724l-0.965,0.764l-1.012,0.818l-1.059,0.865l-1.106,0.912l-1.154,0.959l-1.2,1.012l-1.241,1.059l-1.283,1.106l-1.33,1.16l-1.371,1.212l-0.97,0.87l4.036,4.284l0.576,-0.518l1.307,-1.153l1.265,-1.106l1.229,-1.059l1.183,-1.018l1.147,-0.971l1.101,-0.918l1.059,-0.883l1.018,-0.829l0.976,-0.789l0.93,-0.747l0.882,-0.7l0.412,-0.324l-3.236,-4.948l-0.282,0.218Z" style="fill:#91a83c;"/></g><path d="M5341.17,3675.54l-22.341,-7.408c7.09,-21.387 14.698,-42.486 22.606,-62.709l21.916,8.567c-7.754,19.84 -15.215,40.551 -22.181,61.55Z" style="fill:#92a83c;fill-rule:nonzero;"/><g><path d="M5341.17,3675.54l-22.341,-7.408c7.09,-21.387 14.698,-42.486 22.606,-62.709l21.916,8.567c-7.754,19.84 -15.215,40.551 -22.181,61.55Z" style="fill:#92a83c;"/><path d="M5374.78,3608.98l-3.925,10.073l-0.723,1.853l-0.718,1.86l-1.424,3.73l-0.712,1.871l-0.712,1.877l-0.706,1.883l-1.412,3.777l-1.4,3.789l-0.701,1.907l-0.694,1.9l-0.694,1.912l-0.689,1.912l-1.376,3.837l-1.365,3.848l-1.354,3.859l-0.676,1.936l-0.671,1.936l-0.671,1.941l-0.665,1.942l-1.329,3.895l-0.654,1.948l-0.658,1.947l-0.654,1.954l-3.436,10.326l-39.085,-12.956l-0.006,-0.012l3.453,-10.385l0.677,-2.018l1.353,-4.025l0.683,-2.006l0.688,-2.012l0.689,-2.001l0.688,-2.006l0.694,-2.001l0.695,-1.994l1.4,-3.989l1.412,-3.978l0.712,-1.983l1.424,-3.953l1.435,-3.943l0.724,-1.965l1.448,-3.918l0.729,-1.954l1.459,-3.895l0.736,-1.941l0.735,-1.936l1.483,-3.86l1.483,-3.836l3.948,-10.126l0.011,-0.006l38.351,14.986Zm-28.784,9.132l-0.723,1.906l-0.724,1.918l-0.724,1.912l-1.435,3.848l-0.712,1.93l-0.718,1.936l-0.712,1.941l-1.412,3.884l-0.706,1.947l-0.7,1.954l-1.401,3.918l-0.694,1.96l-0.688,1.965l-0.695,1.971l-0.682,1.965l-0.689,1.977l-0.682,1.977l-0.677,1.977l-0.676,1.983l-0.53,1.565l5.584,1.853l0.518,-1.524l0.67,-1.965l0.677,-1.971l0.682,-1.965l0.677,-1.965l0.689,-1.96l0.682,-1.959l0.688,-1.959l0.695,-1.948l0.694,-1.953l0.694,-1.948l1.401,-3.883l0.7,-1.936l1.412,-3.859l1.424,-3.848l0.712,-1.919l0.718,-1.912l0.717,-1.906l0.724,-1.906l0.718,-1.901l0.459,-1.2l-5.478,-2.142l-0.477,1.242Z" style="fill:#91a83c;"/></g><path d="M5394.78,3542.09l-21.375,-9.862c9.537,-20.663 19.628,-40.762 29.995,-59.731l20.652,11.29c-10.114,18.499 -19.963,38.115 -29.272,58.303Z" style="fill:#92a83c;fill-rule:nonzero;"/><g><path d="M5394.78,3542.09l-21.375,-9.862c9.537,-20.663 19.628,-40.762 29.995,-59.731l20.652,11.29c-10.114,18.499 -19.963,38.115 -29.272,58.303Z" style="fill:#92a83c;"/><path d="M5436.03,3480.28l-5.16,9.467l-0.936,1.724l-1.871,3.471l-0.93,1.748l-1.859,3.506l-0.924,1.765l-0.923,1.771l-1.848,3.554l-0.918,1.789l-0.912,1.789l-0.918,1.8l-0.912,1.8l-0.906,1.807l-0.912,1.812l-0.9,1.818l-0.906,1.818l-0.9,1.83l-0.894,1.83l-0.895,1.836l-0.894,1.841l-0.889,1.842l-0.888,1.847l-1.765,3.707l-0.883,1.859l-0.87,1.865l-0.877,1.871l-0.871,1.872l-4.566,9.884l-37.397,-17.251l-0.006,-0.018l4.607,-9.949l0.906,-1.953l0.906,-1.942l0.912,-1.942l1.836,-3.871l0.924,-1.93l0.924,-1.924l0.929,-1.924l0.93,-1.918l0.935,-1.912l1.871,-3.813l0.942,-1.9l0.947,-1.895l1.895,-3.777l1.906,-3.754l0.953,-1.871l0.959,-1.86l0.965,-1.859l0.959,-1.853l0.965,-1.848l0.971,-1.841l0.965,-1.842l0.971,-1.83l0.976,-1.824l0.977,-1.818l0.977,-1.812l0.977,-1.806l5.201,-9.538l0.012,-0.006l36.132,19.758Zm-29.666,5.342l-0.953,1.795l-0.954,1.8l-0.947,1.807l-1.894,3.636l-0.942,1.824l-0.941,1.83l-0.942,1.841l-0.935,1.836l-0.936,1.847l-0.929,1.854l-1.86,3.718l-0.923,1.865l-0.924,1.877l-0.918,1.871l-1.836,3.766l-0.912,1.889l-1.812,3.789l-0.906,1.906l-0.735,1.559l5.342,2.466l0.706,-1.501l0.9,-1.888l1.801,-3.766l0.906,-1.877l1.824,-3.742l0.912,-1.865l0.918,-1.859l0.918,-1.854l0.923,-1.853l1.848,-3.683l0.929,-1.836l0.93,-1.83l0.936,-1.824l1.871,-3.636l1.882,-3.613l0.948,-1.794l0.941,-1.795l0.953,-1.783l0.571,-1.076l-5.166,-2.824l-0.594,1.123Z" style="fill:#91a83c;"/></g><path d="M5463.37,3416.17l-19.687,-12.909c12.709,-19.381 25.989,-37.674 39.463,-54.372l18.316,14.774c-12.992,16.104 -25.806,33.767 -38.092,52.507Z" style="fill:#92a83c;fill-rule:nonzero;"/><g><path d="M5463.37,3416.17l-19.687,-12.909c12.709,-19.381 25.989,-37.674 39.463,-54.372l18.316,14.774c-12.992,16.104 -25.806,33.767 -38.092,52.507Z" style="fill:#92a83c;"/><path d="M5513.86,3362.32l-6.725,8.367l-1.201,1.5l-1.194,1.513l-1.2,1.518l-1.195,1.529l-1.194,1.536l-1.189,1.541l-1.194,1.554l-1.189,1.559l-1.188,1.571l-1.189,1.583l-1.182,1.582l-1.183,1.595l-1.182,1.606l-1.183,1.612l-1.177,1.618l-1.177,1.624l-1.17,1.636l-1.177,1.642l-1.165,1.647l-1.171,1.659l-1.165,1.665l-1.165,1.671l-1.159,1.677l-1.159,1.689l-1.153,1.688l-1.154,1.701l-1.153,1.706l-1.147,1.712l-1.148,1.724l-1.141,1.724l-5.99,9.108l-34.437,-22.582l-0.006,-0.017l6.054,-9.197l1.212,-1.829l1.212,-1.824l1.218,-1.818l1.218,-1.807l1.224,-1.8l1.224,-1.795l1.23,-1.788l1.235,-1.783l2.471,-3.542l2.483,-3.507l1.248,-1.747l1.247,-1.736l1.253,-1.73l1.253,-1.718l1.254,-1.712l1.259,-1.706l1.259,-1.695l1.265,-1.689l1.259,-1.682l1.271,-1.671l1.265,-1.665l1.271,-1.654l1.271,-1.647l1.277,-1.642l1.27,-1.63l1.277,-1.618l1.277,-1.612l1.283,-1.6l6.801,-8.461l0.018,0l32.043,25.847Zm-30.054,-0.07l-1.242,1.594l-1.235,1.601l-1.236,1.612l-1.23,1.618l-1.235,1.63l-1.23,1.635l-1.23,1.648l-1.229,1.653l-1.224,1.659l-1.224,1.665l-1.218,1.683l-1.224,1.683l-1.212,1.694l-1.218,1.701l-1.212,1.706l-1.212,1.718l-1.206,1.724l-1.206,1.73l-1.201,1.736l-1.2,1.747l-1.194,1.753l-1.195,1.76l-1.047,1.541l4.931,3.23l0.982,-1.459l1.183,-1.741l1.182,-1.736l1.189,-1.73l1.189,-1.718l1.194,-1.718l1.194,-1.706l1.201,-1.701l1.2,-1.688l1.206,-1.689l1.206,-1.677l1.206,-1.671l1.207,-1.659l1.218,-1.659l1.212,-1.648l1.218,-1.635l1.217,-1.63l1.218,-1.624l1.224,-1.618l1.224,-1.606l1.224,-1.595l1.23,-1.594l1.229,-1.577l0.671,-0.865l-4.578,-3.695l-0.717,0.918Z" style="fill:#91a83c;"/></g><path d="M5637.44,2947.89c-38.727,-35.721 -14.144,-91.057 45.752,-22.523c59.909,68.545 55.149,67.998 42.469,81.848c-12.679,13.863 -88.221,-59.325 -88.221,-59.325Z" style="fill:#bbd245;fill-rule:nonzero;"/><path d="M5747.2,3055.16c0,0 -363.18,-45.063 -444.287,137.815c-7.237,16.322 -12.233,34.455 -14.516,54.601c0,0 48.382,79.402 180.649,22.27c132.255,-57.137 195.258,-113.674 195.258,-113.674c0,0 -75.547,206.732 -25.924,272.547c49.142,65.187 97.171,62.851 130.267,-52.812c47.705,-166.71 -1.648,-283.62 -1.648,-283.62c0,-0 -31.078,271.705 -56.354,305.996c-13.786,18.698 -35.073,24.029 -43.028,-24.512c-11.785,-71.876 66.816,-279.313 66.816,-279.313l-36.927,-17.134c0,0 -245.582,174.183 -297.788,175.895c-22.288,0.73 -47.294,-4.201 -56.855,-16.086c-11.755,-14.61 1.771,-43.569 2.724,-44.74c1.707,-2.13 68.934,-108.344 401.613,-137.233Z" style="fill:#bbd245;fill-rule:nonzero;"/><path d="M5778.11,3040.57c-0,0 -1.501,-365.963 189.745,-424.712c17.063,-5.243 35.667,-8.049 55.943,-7.92c-0,0 73.07,57.49 0.588,182.014c-72.47,124.518 -136.115,180.337 -136.115,180.337c0,0 210.939,-46.717 273.701,6.713c64.65,55.031 50.835,103.96 -67.946,123.047c-171.199,27.519 -281.402,-35.402 -281.402,-35.402c-0,-0 273.482,1.5 310.532,-19.511c20.205,-11.467 28.025,-31.966 -19.216,-45.646c-69.964,-20.264 -285.291,33.079 -285.291,33.079l-12.603,-38.698c-0,0 202.177,-223.1 210.097,-274.73c3.377,-22.034 1.465,-47.452 -9.197,-58.361c-13.12,-13.415 -43.48,-3.424 -44.763,-2.63c-2.301,1.436 -115.786,55.543 -184.073,382.42Z" style="fill:#bbd245;fill-rule:nonzero;"/><path d="M5886.86,3145.37c0,-0 318.046,249.394 480.114,296.564c162.074,47.17 -235.938,5.496 -488.233,-255.825c-252.301,-261.315 8.119,-40.739 8.119,-40.739Z" style="fill:#bbd245;fill-rule:nonzero;"/><path d="M5041.51,3733.37c-24.029,-18.133 -49.164,-35.485 -74.676,-51.571l21.958,-34.843c26.5,16.698 52.577,34.714 77.524,53.542l-24.806,32.872Z" style="fill:#92a83c;fill-rule:nonzero;"/><path d="M4888.08,3636.64c-26.583,-13.815 -54.248,-26.806 -82.237,-38.615l16.015,-37.944c28.995,12.232 57.667,25.694 85.215,40.015l-18.993,36.544Z" style="fill:#92a83c;fill-rule:nonzero;"/><path d="M3728.63,3565.93l-10.832,-39.738c29.301,-7.985 59.844,-15.528 90.792,-22.417l8.949,40.203c-30.319,6.749 -60.232,14.133 -88.909,21.952Z" style="fill:#92a83c;fill-rule:nonzero;"/><path d="M4720.76,3565.93c-28.354,-9.491 -57.732,-18.152 -87.315,-25.748l10.238,-39.891c30.53,7.837 60.867,16.78 90.15,26.582l-13.073,39.057Z" style="fill:#92a83c;fill-rule:nonzero;"/><path d="M3907.41,3526.03l-7.184,-40.557c30.589,-5.419 61.661,-10.232 92.339,-14.297l5.413,40.833c-30.095,3.983 -60.561,8.702 -90.568,14.021Z" style="fill:#92a83c;fill-rule:nonzero;"/><path d="M4544.45,3520.53c-29.383,-5.472 -59.726,-10.144 -90.186,-13.874l5.007,-40.881c31.302,3.837 62.503,8.638 92.722,14.269l-7.543,40.486Z" style="fill:#92a83c;fill-rule:nonzero;"/><path d="M4089.05,3502.01l-3.572,-41.034c31.231,-2.718 62.633,-4.713 93.323,-5.931l1.629,41.151c-30.042,1.189 -60.79,3.148 -91.38,5.814Z" style="fill:#92a83c;fill-rule:nonzero;"/><path d="M4363.31,3498.2c-29.936,-1.924 -60.673,-3.06 -91.374,-3.378l0.429,-41.186c31.431,0.33 62.915,1.489 93.581,3.46l-2.636,41.104Z" style="fill:#92a83c;fill-rule:nonzero;"/><g><text x="6315.74px" y="3705.18px" style="font-family:'Helvetica';font-size:179.16px;fill:#92a83c;">®</text></g></g></svg>